<svg width="29" height="35" viewBox="0 0 29 35" fill="none" xmlns="http://www.w3.org/2000/svg">
<path d="M15.5233 4.32452C14.6982 5.58897 14.423 7.74176 14.526 8.61072C14.5927 8.62946 14.9279 8.63333 15.3699 8.61072C15.8296 8.58721 16.6485 8.30817 17.6203 7.82912C18.592 7.35008 19.5126 6.31634 20.1519 5.61038C20.7913 4.90442 21.3538 3.4925 21.6351 2.53441C21.8602 1.76793 21.7801 0.870354 21.7119 0.517373C21.4391 0.444735 20.7793 0.619124 20.4844 0.693863C20.165 0.774817 18.7954 1.33099 18.0806 1.75281C17.3455 2.18656 16.4363 2.92543 15.5233 4.32452Z" fill="white" stroke="black"/>
<path d="M16.9554 9.51836C16.7304 9.59904 15.4807 9.989 14.884 10.1739H14.526C14.3726 10.1739 13.7588 9.97219 13.452 9.87134C13.1451 9.77049 12.1989 9.44272 11.4062 9.14016C10.772 8.89812 10.102 8.78718 9.84626 8.76197C8.72107 8.53505 7.28902 8.76197 6.21498 9.06452C5.1427 9.36658 4.04493 10.1964 3.27793 10.7761L3.27415 10.779C2.66041 11.2429 1.99553 12.1153 1.7398 12.4935C1.33065 13.0986 0.691335 14.5357 0.410039 15.4182C0.128742 16.3006 0.0264531 17.6621 0.000880694 19.1749C-0.0246917 20.6877 0.512329 23.0325 0.870343 24.3183C1.22836 25.6042 2.32797 27.9238 2.58369 28.3776C2.78827 28.7407 3.52135 29.84 3.86232 30.3442C5.29437 32.563 6.77757 33.5715 7.08444 33.7984C7.39131 34.0253 8.33749 34.4287 8.6955 34.4791C9.05352 34.5296 9.7184 34.4791 10.1276 34.4287C10.4549 34.3884 11.2016 34.1262 11.534 34.0001C11.9023 33.8791 12.7786 33.5631 13.1707 33.4202C13.6054 33.2437 14.5004 33.1681 15.2165 33.1176C15.7893 33.0773 16.4951 33.2353 16.7764 33.3194C17.4413 33.395 19.1802 34.1514 19.9985 34.3531C20.8168 34.5548 21.6351 34.4287 22.4279 34.227C23.2206 34.0253 24.0645 33.2185 24.9851 32.2856C25.9057 31.3527 26.9031 29.7643 27.6191 28.6045C28.1919 27.6767 28.7784 26.1001 29 25.4277C28.6931 25.347 27.7981 24.7722 27.3889 24.4948C27.3634 24.5032 27.1332 24.3587 26.4172 23.7132C25.5222 22.9064 24.934 21.6206 24.6271 20.9146C24.3202 20.2086 24.2691 19.1497 24.2435 18.1412C24.218 17.1327 24.5248 16.2502 24.8828 15.3425C25.2409 14.4349 25.829 13.855 26.5195 13.149C27.0718 12.5842 27.8066 12.1237 28.105 11.964L27.2355 10.9303C27.0309 10.7622 26.4325 10.2949 25.6756 9.77049C24.7294 9.11495 23.1695 8.8124 22.0954 8.6359C21.0214 8.45941 19.5893 8.73676 19.2313 8.8124C18.8733 8.88803 17.2367 9.41751 16.9554 9.51836Z" fill="white"/>
</svg>
