<svg width="34" height="35" viewBox="0 0 34 35" fill="none" xmlns="http://www.w3.org/2000/svg">
<path fill-rule="evenodd" clip-rule="evenodd" d="M10.625 1.44196C11.4074 1.44196 12.0416 2.08754 12.0416 2.88392V4.32588H21.9583V2.88392C21.9583 2.08754 22.5926 1.44196 23.375 1.44196C24.1574 1.44196 24.7916 2.08754 24.7916 2.88392V4.36148C28.3711 4.72322 31.1666 7.79716 31.1666 11.5357V24.5134C31.1666 28.4953 27.9953 31.7232 24.0833 31.7232H9.91665C6.00463 31.7232 2.83331 28.4953 2.83331 24.5134V11.5357C2.83331 7.79716 5.62888 4.72322 9.20831 4.36148V2.88392C9.20831 2.08754 9.84258 1.44196 10.625 1.44196ZM5.90848 10.0937H28.0915C27.508 8.41358 25.9338 7.20981 24.0833 7.20981H9.91665C8.06617 7.20981 6.49191 8.41358 5.90848 10.0937ZM28.3333 12.9777H5.66665V24.5134C5.66665 26.9025 7.56944 28.8393 9.91665 28.8393H24.0833C26.4305 28.8393 28.3333 26.9025 28.3333 24.5134V12.9777ZM8.49998 17.3036C8.49998 16.5072 9.13424 15.8616 9.91665 15.8616H15.5833C16.3657 15.8616 17 16.5072 17 17.3036V23.0714C17 23.8678 16.3657 24.5134 15.5833 24.5134H9.91665C9.13424 24.5134 8.49998 23.8678 8.49998 23.0714V17.3036ZM14.1666 18.7455H11.3333V21.6295H14.1666V18.7455Z" fill="#FFE2ED"/>
</svg>
