<svg width="32" height="29" viewBox="0 0 32 29" fill="none" xmlns="http://www.w3.org/2000/svg">
<path fill-rule="evenodd" clip-rule="evenodd" d="M3.1875 7.08333C3.1875 3.17132 6.35882 0 10.2708 0H15.5833C19.4954 0 22.6667 3.17132 22.6667 7.08333V8.66681C25.6435 9.37448 27.9792 12.2458 27.9792 15.5833V20.3662C27.9792 21.1948 28.2214 22.0053 28.676 22.698L30.9344 26.1394C31.22 26.5747 31.2439 27.1315 30.9966 27.5897C30.7493 28.0478 30.2706 28.3333 29.75 28.3333H15.5833C11.6713 28.3333 8.5 25.162 8.5 21.25V19.8333H1.41667C0.89605 19.8333 0.417379 19.5478 0.170059 19.0897C-0.0772601 18.6315 -0.0533736 18.0747 0.232267 17.6394L2.49071 14.198C2.9453 13.5053 3.1875 12.6948 3.1875 11.8662V7.08333ZM11.3333 19.8333V21.25C11.3333 23.5972 13.2361 25.5 15.5833 25.5H27.1258L26.3072 24.2525C25.5495 23.098 25.1458 21.7471 25.1458 20.3662V15.5833C25.1458 13.7743 24.0386 12.2838 22.6667 11.6549V12.75C22.6667 16.662 19.4954 19.8333 15.5833 19.8333H11.3333ZM4.04084 17L4.85951 15.7525C5.61717 14.598 6.02084 13.2471 6.02084 11.8662V7.08333C6.02084 4.73612 7.92362 2.83333 10.2708 2.83333H15.5833C17.9305 2.83333 19.8333 4.73612 19.8333 7.08333V12.75C19.8333 15.0972 17.9305 17 15.5833 17H4.04084Z" fill="#FFE2ED"/>
</svg>
