<svg width="46" height="46" viewBox="0 0 46 46" fill="none" xmlns="http://www.w3.org/2000/svg">
<path d="M23 5.75C32.4875 5.75 40.25 13.5125 40.25 23C40.25 31.5292 34.0208 38.6211 25.875 40.0586L25.7773 39.9805C25.8098 39.9742 25.8425 39.9694 25.875 39.9629V27.792H29.708L30.4746 23H25.875V19.6455C25.8751 18.304 26.3547 17.25 28.4629 17.25H30.667V12.8418C29.4212 12.6501 28.0788 12.458 26.833 12.458C22.904 12.4581 20.125 14.8546 20.125 19.167V23H15.8125V27.792H20.125V39.9629C20.1571 39.9693 20.1895 39.9743 20.2217 39.9805L20.125 40.0586C11.9792 38.6211 5.75 31.5292 5.75 23C5.75 13.5125 13.5125 5.75 23 5.75Z" fill="white"/>
</svg>
