<svg width="43" height="43" viewBox="0 0 43 43" fill="none" xmlns="http://www.w3.org/2000/svg">
<path fill-rule="evenodd" clip-rule="evenodd" d="M36.12 21.8462C36.12 20.7663 36.023 19.7279 35.8431 18.7311H21.4999V24.6221H29.696C29.343 26.5257 28.27 28.1386 26.6571 29.2185V33.0396H31.5789C34.4586 30.3884 36.12 26.4842 36.12 21.8462Z" fill="#4285F4"/>
<path fill-rule="evenodd" clip-rule="evenodd" d="M21.5 36.7292C25.6119 36.7292 29.0592 35.3655 31.5789 33.0396L26.6571 29.2185C25.2934 30.1322 23.549 30.6722 21.5 30.6722C17.5335 30.6722 14.1761 27.9932 12.9786 24.3936H7.89062V28.3393C10.3965 33.3165 15.5468 36.7292 21.5 36.7292Z" fill="#34A853"/>
<path fill-rule="evenodd" clip-rule="evenodd" d="M12.9785 24.3936C12.6739 23.4799 12.5009 22.5038 12.5009 21.5001C12.5009 20.4964 12.6739 19.5203 12.9785 18.6066V14.6608H7.89058C6.85915 16.7168 6.27075 19.0427 6.27075 21.5001C6.27075 23.9575 6.85915 26.2835 7.89058 28.3394L12.9785 24.3936Z" fill="#FBBC05"/>
<path fill-rule="evenodd" clip-rule="evenodd" d="M21.5 12.328C23.7359 12.328 25.7434 13.0963 27.3217 14.6054L31.6897 10.2374C29.0523 7.77997 25.6049 6.2709 21.5 6.2709C15.5468 6.2709 10.3965 9.68362 7.89062 14.6608L12.9786 18.6065C14.1761 15.0069 17.5335 12.328 21.5 12.328Z" fill="#EA4335"/>
</svg>
