<svg width="34" height="35" viewBox="0 0 34 35" fill="none" xmlns="http://www.w3.org/2000/svg">
<path d="M17 1.5C25.6688 1.5 32.5 7.99197 32.5 15.7666C32.4998 23.5411 25.6687 30.0322 17 30.0322C8.33128 30.0322 1.50018 23.5411 1.5 15.7666C1.5 7.99197 8.33116 1.5 17 1.5Z" stroke="#FFE2ED" stroke-width="3"/>
<path d="M16.553 5.76123C19.7123 5.76141 21.7627 7.82587 21.763 9.80029C21.763 11.7748 19.7125 13.8402 16.553 13.8403C13.3934 13.8403 11.3421 11.7749 11.3421 9.80029C11.3424 7.82579 13.3936 5.76123 16.553 5.76123Z" fill="#FFE2ED" stroke="#FFE2ED" stroke-width="3"/>
<mask id="path-3-inside-1_18_355" fill="white">
<path d="M8.69052 25.1885C8.75694 22.8621 9.67351 20.6473 11.2478 19.0091C12.8221 17.3708 14.9318 16.4364 17.1339 16.4021C19.3361 16.3678 21.4595 17.2362 23.0584 18.825C24.6573 20.4138 25.6075 22.5995 25.7094 24.9233L17.2026 25.3997L8.69052 25.1885Z"/>
</mask>
<path d="M8.69052 25.1885C8.75694 22.8621 9.67351 20.6473 11.2478 19.0091C12.8221 17.3708 14.9318 16.4364 17.1339 16.4021C19.3361 16.3678 21.4595 17.2362 23.0584 18.825C24.6573 20.4138 25.6075 22.5995 25.7094 24.9233L17.2026 25.3997L8.69052 25.1885Z" fill="#FFE2ED" stroke="#FFE2ED" stroke-width="6" mask="url(#path-3-inside-1_18_355)"/>
</svg>
