<svg width="34" height="35" viewBox="0 0 34 35" fill="none" xmlns="http://www.w3.org/2000/svg">
<path d="M28.2837 22.5619C25.4008 13.8218 13.5024 11.4322 6.15674 17.8672C6.11879 17.9011 6.07327 17.9281 6.02288 17.9465C5.97249 17.9649 5.91823 17.9744 5.86319 17.9744C5.80816 17.9744 5.75348 17.9649 5.70232 17.9465C5.65116 17.9281 5.60453 17.9011 5.56517 17.8672L0.585691 13.5101C0.377119 13.327 0.217367 13.1071 0.117738 12.8659C0.0181093 12.6247 -0.0189808 12.368 0.00910227 12.114L1.08737 2.5752C1.13653 2.1592 1.34957 1.77061 1.69056 1.47491C2.03155 1.17921 2.47964 0.994479 2.95937 0.951852L13.7046 0.010308C14.0533 -0.0201532 14.405 0.017103 14.7341 0.119346C15.0632 0.221589 15.3613 0.386229 15.6066 0.601208L33.3531 15.9711C33.7661 16.3303 33.9986 16.8164 34 17.3236C34.0014 17.8308 33.7716 18.318 33.3606 18.6788L28.8004 22.6788C28.7625 22.7125 28.7151 22.7369 28.6628 22.7496C28.6105 22.7622 28.5553 22.7626 28.5028 22.7508C28.4503 22.7389 28.4023 22.7151 28.3639 22.682C28.3254 22.6488 28.2977 22.6074 28.2837 22.5619ZM10.979 7.24396C10.979 6.63432 10.6997 6.04964 10.2026 5.61856C9.70549 5.18747 9.03125 4.94529 8.32823 4.94529C7.62521 4.94529 6.95102 5.18747 6.4539 5.61856C5.95679 6.04964 5.6775 6.63432 5.6775 7.24396C5.6775 7.8536 5.95679 8.43828 6.4539 8.86936C6.95102 9.30044 7.62521 9.54262 8.32823 9.54262C9.03125 9.54262 9.70549 9.30044 10.2026 8.86936C10.6997 8.43828 10.979 7.8536 10.979 7.24396Z" fill="#FFE2ED"/>
<path d="M26.3293 25.4385C26.3293 27.8701 25.2154 30.2022 23.2325 31.9217C21.2497 33.6412 18.5604 34.6071 15.7563 34.6071C12.9522 34.6071 10.2629 33.6412 8.28003 31.9217C6.2972 30.2022 5.18329 27.8701 5.18329 25.4385C5.18329 23.0068 6.2972 20.6747 8.28003 18.9552C10.2629 17.2358 12.9522 16.2698 15.7563 16.2698C18.5604 16.2698 21.2497 17.2358 23.2325 18.9552C25.2154 20.6747 26.3293 23.0068 26.3293 25.4385ZM14.1913 24.2112C13.9753 24.1313 13.794 23.9943 13.673 23.8198C13.552 23.6453 13.4976 23.4422 13.5175 23.2393C13.5374 23.0364 13.6307 22.8441 13.7839 22.6899C13.9371 22.5356 14.1426 22.4272 14.371 22.3801C15.1597 22.2112 15.951 22.1788 16.7447 22.2827C17.0692 22.326 17.3288 22.4623 17.5235 22.6918C18.0276 23.2935 18.7165 23.5121 19.5901 23.3476C19.6843 23.3292 19.7727 23.2932 19.8492 23.2423C19.9258 23.1913 19.9887 23.1266 20.0336 23.0525C20.0784 22.9784 20.1042 22.8967 20.1091 22.8131C20.1139 22.7295 20.0979 22.646 20.0619 22.5684C19.5777 21.5121 18.719 20.7957 17.486 20.4191C17.2015 20.3282 17.0268 20.1572 16.9619 19.9061L16.7971 19.2243C16.7372 18.9819 16.5675 18.8412 16.2879 18.8022C15.9335 18.7459 15.5791 18.7416 15.2246 18.7892C14.9101 18.8282 14.7354 18.984 14.7005 19.2567L14.6031 19.9126C14.5732 20.1377 14.4359 20.2892 14.1913 20.3671C8.94972 22.1073 11.6604 27.0813 16.6998 26.4255C16.9283 26.3972 17.161 26.4414 17.3549 26.5499C17.5489 26.6585 17.6912 26.8241 17.7556 27.0164L17.823 27.2241C18.0327 27.8605 17.773 28.2782 17.0442 28.4774C14.4833 29.1787 13.3077 26.9709 11.6903 27.6787C11.4557 27.7826 11.3758 27.9406 11.4507 28.1527C11.8651 29.3388 12.7736 30.1029 14.1763 30.4449C14.2836 30.4718 14.38 30.5245 14.4542 30.5969C14.5284 30.6693 14.5774 30.7584 14.5957 30.854L14.7305 31.6526C14.7519 31.7829 14.8262 31.9023 14.9402 31.9892C15.0541 32.0761 15.2002 32.1249 15.3519 32.1267L16.2206 32.1332C16.6249 32.1332 16.8121 31.96 16.7822 31.6137C16.7272 30.9903 16.9743 30.5769 17.5235 30.3734C20.0993 29.4059 21.0653 27.3475 19.1184 25.367C17.838 24.0684 15.6215 24.7502 14.1913 24.2112Z" fill="#FFE2ED"/>
</svg>
