<svg width="20" height="20" viewBox="0 0 20 20" fill="none" xmlns="http://www.w3.org/2000/svg">
<g clip-path="url(#clip0_21_283)">
<path fill-rule="evenodd" clip-rule="evenodd" d="M5.90909 5C5.45722 5 5.09091 5.44772 5.09091 6C5.09091 6.55228 5.45722 7 5.90909 7C6.36096 7 6.72727 6.55228 6.72727 6C6.72727 5.44772 6.36096 5 5.90909 5ZM8.11646 7.31355C8.27479 6.91684 8.36364 6.4711 8.36364 6C8.36364 4.34315 7.2647 3 5.90909 3C4.55348 3 3.45455 4.34315 3.45455 6C3.45455 6.4711 3.54339 6.91684 3.70172 7.31355C3.2759 7.45204 2.88417 7.63946 2.53725 7.88176C1.60331 8.53403 1 9.59205 1 11V12C1 12.5523 1.36631 13 1.81818 13C2.27005 13 2.63636 12.5523 2.63636 12V11C2.63636 10.4079 2.85123 9.96597 3.34911 9.61824C3.89137 9.23953 4.75265 9 5.90909 9C7.06553 9 7.92681 9.23953 8.46907 9.61824C8.96695 9.96597 9.18182 10.4079 9.18182 11V12C9.18182 12.5523 9.54813 13 10 13C10.4519 13 10.8182 12.5523 10.8182 12V11C10.8182 10.4079 11.033 9.96597 11.5309 9.61824C12.0732 9.23953 12.9345 9 14.0909 9C15.2473 9 16.1086 9.23953 16.6509 9.61824C17.1488 9.96597 17.3636 10.4079 17.3636 11V12C17.3636 12.5523 17.7299 13 18.1818 13C18.6337 13 19 12.5523 19 12V11C19 9.59205 18.3967 8.53403 17.4627 7.88176C17.1158 7.63946 16.7241 7.45205 16.2983 7.31355C16.4566 6.91684 16.5455 6.4711 16.5455 6C16.5455 4.34315 15.4465 3 14.0909 3C12.7353 3 11.6364 4.34315 11.6364 6C11.6364 6.4711 11.7252 6.91684 11.8835 7.31355C11.4577 7.45205 11.066 7.63946 10.7191 7.88176C10.4497 8.06989 10.2078 8.29178 10 8.54609C9.79218 8.29178 9.55031 8.06989 9.28093 7.88176C8.93401 7.63946 8.54228 7.45204 8.11646 7.31355ZM14.0909 7C14.5428 7 14.9091 6.55228 14.9091 6C14.9091 5.44772 14.5428 5 14.0909 5C13.639 5 13.2727 5.44772 13.2727 6C13.2727 6.55228 13.639 7 14.0909 7ZM5.90909 13C5.45722 13 5.09091 13.4477 5.09091 14C5.09091 14.5523 5.45722 15 5.90909 15C6.36096 15 6.72727 14.5523 6.72727 14C6.72727 13.4477 6.36096 13 5.90909 13ZM8.11646 15.3136C8.27479 14.9168 8.36364 14.4711 8.36364 14C8.36364 12.3431 7.2647 11 5.90909 11C4.55348 11 3.45455 12.3431 3.45455 14C3.45455 14.4711 3.54339 14.9168 3.70172 15.3136C3.2759 15.452 2.88417 15.6395 2.53725 15.8818C1.60331 16.534 1 17.5921 1 19V20C1 20.5523 1.36631 21 1.81818 21C2.27005 21 2.63636 20.5523 2.63636 20V19C2.63636 18.4079 2.85123 17.966 3.34911 17.6182C3.89137 17.2395 4.75265 17 5.90909 17C7.06553 17 7.92681 17.2395 8.46907 17.6182C8.96695 17.966 9.18182 18.4079 9.18182 19V20C9.18182 20.5523 9.54813 21 10 21C10.4519 21 10.8182 20.5523 10.8182 20V19C10.8182 18.4079 11.033 17.966 11.5309 17.6182C12.0732 17.2395 12.9345 17 14.0909 17C15.2473 17 16.1086 17.2395 16.6509 17.6182C17.1488 17.966 17.3636 18.4079 17.3636 19V20C17.3636 20.5523 17.7299 21 18.1818 21C18.6337 21 19 20.5523 19 20V19C19 17.5921 18.3967 16.534 17.4627 15.8818C17.1158 15.6395 16.7241 15.452 16.2983 15.3136C16.4566 14.9168 16.5455 14.4711 16.5455 14C16.5455 12.3431 15.4465 11 14.0909 11C12.7353 11 11.6364 12.3431 11.6364 14C11.6364 14.4711 11.7252 14.9168 11.8835 15.3136C11.4577 15.452 11.066 15.6395 10.7191 15.8818C10.4497 16.0699 10.2078 16.2918 10 16.5461C9.79218 16.2918 9.55031 16.0699 9.28093 15.8818C8.93401 15.6395 8.54228 15.452 8.11646 15.3136ZM14.0909 15C14.5428 15 14.9091 14.5523 14.9091 14C14.9091 13.4477 14.5428 13 14.0909 13C13.639 13 13.2727 13.4477 13.2727 14C13.2727 14.5523 13.639 15 14.0909 15Z" fill="#AB5FBD"/>
</g>
<defs>
<clipPath id="clip0_21_283">
<rect width="20" height="20" fill="white"/>
</clipPath>
</defs>
</svg>
