<svg width="18" height="18" viewBox="0 0 18 18" fill="none" xmlns="http://www.w3.org/2000/svg">
<path fill-rule="evenodd" clip-rule="evenodd" d="M9 2.25C7.75736 2.25 6.75 3.25736 6.75 4.5C6.75 5.74264 7.75736 6.75 9 6.75C10.2426 6.75 11.25 5.74264 11.25 4.5C11.25 3.25736 10.2426 2.25 9 2.25ZM5.25 4.5C5.25 2.42893 6.92893 0.75 9 0.75C11.0711 0.75 12.75 2.42893 12.75 4.5C12.75 6.57107 11.0711 8.25 9 8.25C6.92893 8.25 5.25 6.57107 5.25 4.5ZM4.33383 10.6125C5.83041 9.94161 7.638 9.75 9 9.75C10.362 9.75 12.1696 9.94161 13.6662 10.6125C15.1897 11.2955 16.5 12.5415 16.5 14.625V15.375C16.5 16.3909 15.6786 17.25 14.6387 17.25H3.36126C2.3214 17.25 1.5 16.3909 1.5 15.375V14.625C1.5 12.5415 2.81029 11.2955 4.33383 10.6125ZM4.94742 11.9813C3.75221 12.517 3 13.3335 3 14.625V15.375C3 15.5865 3.17366 15.75 3.36126 15.75H14.6387C14.8263 15.75 15 15.5865 15 15.375V14.625C15 13.3335 14.2478 12.517 13.0526 11.9813C11.8304 11.4334 10.263 11.25 9 11.25C7.737 11.25 6.16959 11.4334 4.94742 11.9813Z" fill="#AB5FBD"/>
</svg>
